<mxfile host="app.diagrams.net" modified="2020-07-28T01:26:25.075Z" agent="5.0 (Windows NT 10.0; Win64; x64) AppleWebKit/537.36 (KHTML, like Gecko) Chrome/84.0.4147.89 Safari/537.36" etag="LA-Tebzxx5z6vZfTMQ60" version="13.5.3" type="github">
  <diagram id="C5RBs43oDa-KdzZeNtuy" name="Page-1">
    <mxGraphModel dx="3197" dy="2439" grid="1" gridSize="10" guides="1" tooltips="1" connect="1" arrows="1" fold="1" page="1" pageScale="1" pageWidth="827" pageHeight="1169" math="0" shadow="0">
      <root>
        <mxCell id="WIyWlLk6GJQsqaUBKTNV-0" />
        <mxCell id="WIyWlLk6GJQsqaUBKTNV-1" parent="WIyWlLk6GJQsqaUBKTNV-0" />
        <mxCell id="_pvv8HfVqvw_CFyZ3jRB-49" style="edgeStyle=orthogonalEdgeStyle;rounded=0;orthogonalLoop=1;jettySize=auto;html=1;exitX=0;exitY=0.5;exitDx=0;exitDy=0;" edge="1" parent="WIyWlLk6GJQsqaUBKTNV-1" source="_pvv8HfVqvw_CFyZ3jRB-11" target="_pvv8HfVqvw_CFyZ3jRB-38">
          <mxGeometry relative="1" as="geometry" />
        </mxCell>
        <mxCell id="_pvv8HfVqvw_CFyZ3jRB-50" style="edgeStyle=orthogonalEdgeStyle;rounded=0;orthogonalLoop=1;jettySize=auto;html=1;" edge="1" parent="WIyWlLk6GJQsqaUBKTNV-1" source="_pvv8HfVqvw_CFyZ3jRB-2" target="_pvv8HfVqvw_CFyZ3jRB-39">
          <mxGeometry relative="1" as="geometry">
            <Array as="points">
              <mxPoint x="-120" y="-601" />
              <mxPoint x="-120" y="-740" />
            </Array>
          </mxGeometry>
        </mxCell>
        <mxCell id="_pvv8HfVqvw_CFyZ3jRB-70" style="edgeStyle=orthogonalEdgeStyle;rounded=0;orthogonalLoop=1;jettySize=auto;html=1;" edge="1" parent="WIyWlLk6GJQsqaUBKTNV-1" source="_pvv8HfVqvw_CFyZ3jRB-11" target="_pvv8HfVqvw_CFyZ3jRB-67">
          <mxGeometry relative="1" as="geometry" />
        </mxCell>
        <mxCell id="_pvv8HfVqvw_CFyZ3jRB-71" style="edgeStyle=orthogonalEdgeStyle;rounded=0;orthogonalLoop=1;jettySize=auto;html=1;" edge="1" parent="WIyWlLk6GJQsqaUBKTNV-1" source="_pvv8HfVqvw_CFyZ3jRB-2" target="_pvv8HfVqvw_CFyZ3jRB-64">
          <mxGeometry relative="1" as="geometry" />
        </mxCell>
        <mxCell id="_pvv8HfVqvw_CFyZ3jRB-72" style="edgeStyle=orthogonalEdgeStyle;rounded=0;orthogonalLoop=1;jettySize=auto;html=1;entryX=1;entryY=0.5;entryDx=0;entryDy=0;" edge="1" parent="WIyWlLk6GJQsqaUBKTNV-1" source="_pvv8HfVqvw_CFyZ3jRB-37" target="_pvv8HfVqvw_CFyZ3jRB-63">
          <mxGeometry relative="1" as="geometry" />
        </mxCell>
        <mxCell id="_pvv8HfVqvw_CFyZ3jRB-83" style="edgeStyle=orthogonalEdgeStyle;rounded=0;orthogonalLoop=1;jettySize=auto;html=1;entryX=0;entryY=0.5;entryDx=0;entryDy=0;" edge="1" parent="WIyWlLk6GJQsqaUBKTNV-1" source="_pvv8HfVqvw_CFyZ3jRB-2" target="_pvv8HfVqvw_CFyZ3jRB-80">
          <mxGeometry relative="1" as="geometry" />
        </mxCell>
        <mxCell id="_pvv8HfVqvw_CFyZ3jRB-84" style="edgeStyle=orthogonalEdgeStyle;rounded=0;orthogonalLoop=1;jettySize=auto;html=1;" edge="1" parent="WIyWlLk6GJQsqaUBKTNV-1" source="_pvv8HfVqvw_CFyZ3jRB-2" target="_pvv8HfVqvw_CFyZ3jRB-68">
          <mxGeometry relative="1" as="geometry" />
        </mxCell>
        <mxCell id="_pvv8HfVqvw_CFyZ3jRB-94" style="edgeStyle=orthogonalEdgeStyle;rounded=0;orthogonalLoop=1;jettySize=auto;html=1;entryX=0;entryY=0.5;entryDx=0;entryDy=0;" edge="1" parent="WIyWlLk6GJQsqaUBKTNV-1" source="_pvv8HfVqvw_CFyZ3jRB-37" target="_pvv8HfVqvw_CFyZ3jRB-88">
          <mxGeometry relative="1" as="geometry" />
        </mxCell>
        <mxCell id="_pvv8HfVqvw_CFyZ3jRB-103" style="edgeStyle=orthogonalEdgeStyle;rounded=0;orthogonalLoop=1;jettySize=auto;html=1;" edge="1" parent="WIyWlLk6GJQsqaUBKTNV-1" source="_pvv8HfVqvw_CFyZ3jRB-37" target="_pvv8HfVqvw_CFyZ3jRB-97">
          <mxGeometry relative="1" as="geometry" />
        </mxCell>
        <mxCell id="_pvv8HfVqvw_CFyZ3jRB-1" value="Member&#xa;" style="swimlane;fontStyle=2;align=center;verticalAlign=top;childLayout=stackLayout;horizontal=1;startSize=26;horizontalStack=0;resizeParent=1;resizeLast=0;collapsible=1;marginBottom=0;rounded=0;shadow=0;strokeWidth=1;" vertex="1" parent="WIyWlLk6GJQsqaUBKTNV-1">
          <mxGeometry x="-390" y="-640" width="160" height="340" as="geometry">
            <mxRectangle x="230" y="140" width="160" height="26" as="alternateBounds" />
          </mxGeometry>
        </mxCell>
        <mxCell id="_pvv8HfVqvw_CFyZ3jRB-2" value="String memberId" style="text;align=left;verticalAlign=top;spacingLeft=4;spacingRight=4;overflow=hidden;rotatable=0;points=[[0,0.5],[1,0.5]];portConstraint=eastwest;" vertex="1" parent="_pvv8HfVqvw_CFyZ3jRB-1">
          <mxGeometry y="26" width="160" height="26" as="geometry" />
        </mxCell>
        <object label="String password" memberId="" password="" mphoto="" userName="" nickname="" mcontent="" birth="" gender="" phone="" email="" address="" mstatus="" id="_pvv8HfVqvw_CFyZ3jRB-3">
          <mxCell style="text;align=left;verticalAlign=top;spacingLeft=4;spacingRight=4;overflow=hidden;rotatable=0;points=[[0,0.5],[1,0.5]];portConstraint=eastwest;rounded=0;shadow=0;html=0;" vertex="1" parent="_pvv8HfVqvw_CFyZ3jRB-1">
            <mxGeometry y="52" width="160" height="26" as="geometry" />
          </mxCell>
        </object>
        <mxCell id="_pvv8HfVqvw_CFyZ3jRB-4" value="String mphoto" style="text;align=left;verticalAlign=top;spacingLeft=4;spacingRight=4;overflow=hidden;rotatable=0;points=[[0,0.5],[1,0.5]];portConstraint=eastwest;rounded=0;shadow=0;html=0;" vertex="1" parent="_pvv8HfVqvw_CFyZ3jRB-1">
          <mxGeometry y="78" width="160" height="26" as="geometry" />
        </mxCell>
        <mxCell id="_pvv8HfVqvw_CFyZ3jRB-15" value="String userName" style="text;align=left;verticalAlign=top;spacingLeft=4;spacingRight=4;overflow=hidden;rotatable=0;points=[[0,0.5],[1,0.5]];portConstraint=eastwest;rounded=0;shadow=0;html=0;" vertex="1" parent="_pvv8HfVqvw_CFyZ3jRB-1">
          <mxGeometry y="104" width="160" height="26" as="geometry" />
        </mxCell>
        <mxCell id="_pvv8HfVqvw_CFyZ3jRB-16" value="String nickname" style="text;align=left;verticalAlign=top;spacingLeft=4;spacingRight=4;overflow=hidden;rotatable=0;points=[[0,0.5],[1,0.5]];portConstraint=eastwest;rounded=0;shadow=0;html=0;" vertex="1" parent="_pvv8HfVqvw_CFyZ3jRB-1">
          <mxGeometry y="130" width="160" height="26" as="geometry" />
        </mxCell>
        <mxCell id="_pvv8HfVqvw_CFyZ3jRB-7" value="String mcontent" style="text;align=left;verticalAlign=top;spacingLeft=4;spacingRight=4;overflow=hidden;rotatable=0;points=[[0,0.5],[1,0.5]];portConstraint=eastwest;" vertex="1" parent="_pvv8HfVqvw_CFyZ3jRB-1">
          <mxGeometry y="156" width="160" height="26" as="geometry" />
        </mxCell>
        <mxCell id="_pvv8HfVqvw_CFyZ3jRB-18" value="Date birth" style="text;align=left;verticalAlign=top;spacingLeft=4;spacingRight=4;overflow=hidden;rotatable=0;points=[[0,0.5],[1,0.5]];portConstraint=eastwest;" vertex="1" parent="_pvv8HfVqvw_CFyZ3jRB-1">
          <mxGeometry y="182" width="160" height="26" as="geometry" />
        </mxCell>
        <mxCell id="_pvv8HfVqvw_CFyZ3jRB-17" value="String gender" style="text;align=left;verticalAlign=top;spacingLeft=4;spacingRight=4;overflow=hidden;rotatable=0;points=[[0,0.5],[1,0.5]];portConstraint=eastwest;rounded=0;shadow=0;html=0;" vertex="1" parent="_pvv8HfVqvw_CFyZ3jRB-1">
          <mxGeometry y="208" width="160" height="26" as="geometry" />
        </mxCell>
        <mxCell id="_pvv8HfVqvw_CFyZ3jRB-20" value="String phone" style="text;align=left;verticalAlign=top;spacingLeft=4;spacingRight=4;overflow=hidden;rotatable=0;points=[[0,0.5],[1,0.5]];portConstraint=eastwest;" vertex="1" parent="_pvv8HfVqvw_CFyZ3jRB-1">
          <mxGeometry y="234" width="160" height="26" as="geometry" />
        </mxCell>
        <mxCell id="_pvv8HfVqvw_CFyZ3jRB-22" value="String email" style="text;align=left;verticalAlign=top;spacingLeft=4;spacingRight=4;overflow=hidden;rotatable=0;points=[[0,0.5],[1,0.5]];portConstraint=eastwest;" vertex="1" parent="_pvv8HfVqvw_CFyZ3jRB-1">
          <mxGeometry y="260" width="160" height="26" as="geometry" />
        </mxCell>
        <mxCell id="_pvv8HfVqvw_CFyZ3jRB-19" value="String address" style="text;align=left;verticalAlign=top;spacingLeft=4;spacingRight=4;overflow=hidden;rotatable=0;points=[[0,0.5],[1,0.5]];portConstraint=eastwest;" vertex="1" parent="_pvv8HfVqvw_CFyZ3jRB-1">
          <mxGeometry y="286" width="160" height="26" as="geometry" />
        </mxCell>
        <mxCell id="_pvv8HfVqvw_CFyZ3jRB-23" value="String mstatus" style="text;align=left;verticalAlign=top;spacingLeft=4;spacingRight=4;overflow=hidden;rotatable=0;points=[[0,0.5],[1,0.5]];portConstraint=eastwest;" vertex="1" parent="_pvv8HfVqvw_CFyZ3jRB-1">
          <mxGeometry y="312" width="160" height="26" as="geometry" />
        </mxCell>
        <object label="Post" mstatus="" id="_pvv8HfVqvw_CFyZ3jRB-36">
          <mxCell style="swimlane;fontStyle=0;childLayout=stackLayout;horizontal=1;startSize=26;fillColor=none;horizontalStack=0;resizeParent=1;resizeParentMax=0;resizeLast=0;collapsible=1;marginBottom=0;" vertex="1" parent="WIyWlLk6GJQsqaUBKTNV-1">
            <mxGeometry x="-20" y="-831" width="140" height="234" as="geometry" />
          </mxCell>
        </object>
        <mxCell id="_pvv8HfVqvw_CFyZ3jRB-37" value="int pNo" style="text;strokeColor=none;fillColor=none;align=left;verticalAlign=top;spacingLeft=4;spacingRight=4;overflow=hidden;rotatable=0;points=[[0,0.5],[1,0.5]];portConstraint=eastwest;" vertex="1" parent="_pvv8HfVqvw_CFyZ3jRB-36">
          <mxGeometry y="26" width="140" height="26" as="geometry" />
        </mxCell>
        <mxCell id="_pvv8HfVqvw_CFyZ3jRB-38" value="int rNo" style="text;strokeColor=none;fillColor=none;align=left;verticalAlign=top;spacingLeft=4;spacingRight=4;overflow=hidden;rotatable=0;points=[[0,0.5],[1,0.5]];portConstraint=eastwest;" vertex="1" parent="_pvv8HfVqvw_CFyZ3jRB-36">
          <mxGeometry y="52" width="140" height="26" as="geometry" />
        </mxCell>
        <mxCell id="_pvv8HfVqvw_CFyZ3jRB-39" value="String member_Id" style="text;strokeColor=none;fillColor=none;align=left;verticalAlign=top;spacingLeft=4;spacingRight=4;overflow=hidden;rotatable=0;points=[[0,0.5],[1,0.5]];portConstraint=eastwest;" vertex="1" parent="_pvv8HfVqvw_CFyZ3jRB-36">
          <mxGeometry y="78" width="140" height="26" as="geometry" />
        </mxCell>
        <mxCell id="_pvv8HfVqvw_CFyZ3jRB-40" value="Date date" style="text;strokeColor=none;fillColor=none;align=left;verticalAlign=top;spacingLeft=4;spacingRight=4;overflow=hidden;rotatable=0;points=[[0,0.5],[1,0.5]];portConstraint=eastwest;" vertex="1" parent="_pvv8HfVqvw_CFyZ3jRB-36">
          <mxGeometry y="104" width="140" height="26" as="geometry" />
        </mxCell>
        <mxCell id="_pvv8HfVqvw_CFyZ3jRB-41" value="String pContent" style="text;strokeColor=none;fillColor=none;align=left;verticalAlign=top;spacingLeft=4;spacingRight=4;overflow=hidden;rotatable=0;points=[[0,0.5],[1,0.5]];portConstraint=eastwest;" vertex="1" parent="_pvv8HfVqvw_CFyZ3jRB-36">
          <mxGeometry y="130" width="140" height="26" as="geometry" />
        </mxCell>
        <mxCell id="_pvv8HfVqvw_CFyZ3jRB-42" value="int pCnt" style="text;strokeColor=none;fillColor=none;align=left;verticalAlign=top;spacingLeft=4;spacingRight=4;overflow=hidden;rotatable=0;points=[[0,0.5],[1,0.5]];portConstraint=eastwest;" vertex="1" parent="_pvv8HfVqvw_CFyZ3jRB-36">
          <mxGeometry y="156" width="140" height="26" as="geometry" />
        </mxCell>
        <mxCell id="_pvv8HfVqvw_CFyZ3jRB-43" value="double star" style="text;strokeColor=none;fillColor=none;align=left;verticalAlign=top;spacingLeft=4;spacingRight=4;overflow=hidden;rotatable=0;points=[[0,0.5],[1,0.5]];portConstraint=eastwest;" vertex="1" parent="_pvv8HfVqvw_CFyZ3jRB-36">
          <mxGeometry y="182" width="140" height="26" as="geometry" />
        </mxCell>
        <mxCell id="_pvv8HfVqvw_CFyZ3jRB-44" value="String pStatus" style="text;strokeColor=none;fillColor=none;align=left;verticalAlign=top;spacingLeft=4;spacingRight=4;overflow=hidden;rotatable=0;points=[[0,0.5],[1,0.5]];portConstraint=eastwest;" vertex="1" parent="_pvv8HfVqvw_CFyZ3jRB-36">
          <mxGeometry y="208" width="140" height="26" as="geometry" />
        </mxCell>
        <object label="Love" mstatus="" id="_pvv8HfVqvw_CFyZ3jRB-61">
          <mxCell style="swimlane;fontStyle=0;childLayout=stackLayout;horizontal=1;startSize=26;fillColor=none;horizontalStack=0;resizeParent=1;resizeParentMax=0;resizeLast=0;collapsible=1;marginBottom=0;" vertex="1" parent="WIyWlLk6GJQsqaUBKTNV-1">
            <mxGeometry x="-270" y="-870" width="140" height="104" as="geometry" />
          </mxCell>
        </object>
        <mxCell id="_pvv8HfVqvw_CFyZ3jRB-62" value="int lno" style="text;strokeColor=none;fillColor=none;align=left;verticalAlign=top;spacingLeft=4;spacingRight=4;overflow=hidden;rotatable=0;points=[[0,0.5],[1,0.5]];portConstraint=eastwest;" vertex="1" parent="_pvv8HfVqvw_CFyZ3jRB-61">
          <mxGeometry y="26" width="140" height="26" as="geometry" />
        </mxCell>
        <mxCell id="_pvv8HfVqvw_CFyZ3jRB-63" value="int pno" style="text;strokeColor=none;fillColor=none;align=left;verticalAlign=top;spacingLeft=4;spacingRight=4;overflow=hidden;rotatable=0;points=[[0,0.5],[1,0.5]];portConstraint=eastwest;" vertex="1" parent="_pvv8HfVqvw_CFyZ3jRB-61">
          <mxGeometry y="52" width="140" height="26" as="geometry" />
        </mxCell>
        <mxCell id="_pvv8HfVqvw_CFyZ3jRB-64" value="String member_id" style="text;strokeColor=none;fillColor=none;align=left;verticalAlign=top;spacingLeft=4;spacingRight=4;overflow=hidden;rotatable=0;points=[[0,0.5],[1,0.5]];portConstraint=eastwest;" vertex="1" parent="_pvv8HfVqvw_CFyZ3jRB-61">
          <mxGeometry y="78" width="140" height="26" as="geometry" />
        </mxCell>
        <object label="Report" mstatus="" id="_pvv8HfVqvw_CFyZ3jRB-77">
          <mxCell style="swimlane;fontStyle=0;childLayout=stackLayout;horizontal=1;startSize=26;fillColor=none;horizontalStack=0;resizeParent=1;resizeParentMax=0;resizeLast=0;collapsible=1;marginBottom=0;" vertex="1" parent="WIyWlLk6GJQsqaUBKTNV-1">
            <mxGeometry x="-480" y="-870" width="140" height="104" as="geometry" />
          </mxCell>
        </object>
        <mxCell id="_pvv8HfVqvw_CFyZ3jRB-78" value="int lno" style="text;strokeColor=none;fillColor=none;align=left;verticalAlign=top;spacingLeft=4;spacingRight=4;overflow=hidden;rotatable=0;points=[[0,0.5],[1,0.5]];portConstraint=eastwest;" vertex="1" parent="_pvv8HfVqvw_CFyZ3jRB-77">
          <mxGeometry y="26" width="140" height="26" as="geometry" />
        </mxCell>
        <mxCell id="_pvv8HfVqvw_CFyZ3jRB-79" value="int pno" style="text;strokeColor=none;fillColor=none;align=left;verticalAlign=top;spacingLeft=4;spacingRight=4;overflow=hidden;rotatable=0;points=[[0,0.5],[1,0.5]];portConstraint=eastwest;" vertex="1" parent="_pvv8HfVqvw_CFyZ3jRB-77">
          <mxGeometry y="52" width="140" height="26" as="geometry" />
        </mxCell>
        <mxCell id="_pvv8HfVqvw_CFyZ3jRB-80" value="String member_id" style="text;strokeColor=none;fillColor=none;align=left;verticalAlign=top;spacingLeft=4;spacingRight=4;overflow=hidden;rotatable=0;points=[[0,0.5],[1,0.5]];portConstraint=eastwest;" vertex="1" parent="_pvv8HfVqvw_CFyZ3jRB-77">
          <mxGeometry y="78" width="140" height="26" as="geometry" />
        </mxCell>
        <object label="Bookmark" mstatus="" id="_pvv8HfVqvw_CFyZ3jRB-65">
          <mxCell style="swimlane;fontStyle=0;childLayout=stackLayout;horizontal=1;startSize=26;fillColor=none;horizontalStack=0;resizeParent=1;resizeParentMax=0;resizeLast=0;collapsible=1;marginBottom=0;" vertex="1" parent="WIyWlLk6GJQsqaUBKTNV-1">
            <mxGeometry x="-40" y="-540" width="140" height="104" as="geometry" />
          </mxCell>
        </object>
        <mxCell id="_pvv8HfVqvw_CFyZ3jRB-66" value="int bno" style="text;strokeColor=none;fillColor=none;align=left;verticalAlign=top;spacingLeft=4;spacingRight=4;overflow=hidden;rotatable=0;points=[[0,0.5],[1,0.5]];portConstraint=eastwest;" vertex="1" parent="_pvv8HfVqvw_CFyZ3jRB-65">
          <mxGeometry y="26" width="140" height="26" as="geometry" />
        </mxCell>
        <mxCell id="_pvv8HfVqvw_CFyZ3jRB-67" value="int rno" style="text;strokeColor=none;fillColor=none;align=left;verticalAlign=top;spacingLeft=4;spacingRight=4;overflow=hidden;rotatable=0;points=[[0,0.5],[1,0.5]];portConstraint=eastwest;" vertex="1" parent="_pvv8HfVqvw_CFyZ3jRB-65">
          <mxGeometry y="52" width="140" height="26" as="geometry" />
        </mxCell>
        <mxCell id="_pvv8HfVqvw_CFyZ3jRB-68" value="String member_id" style="text;strokeColor=none;fillColor=none;align=left;verticalAlign=top;spacingLeft=4;spacingRight=4;overflow=hidden;rotatable=0;points=[[0,0.5],[1,0.5]];portConstraint=eastwest;" vertex="1" parent="_pvv8HfVqvw_CFyZ3jRB-65">
          <mxGeometry y="78" width="140" height="26" as="geometry" />
        </mxCell>
        <object label="Restaurant" mstatus="" id="_pvv8HfVqvw_CFyZ3jRB-10">
          <mxCell style="swimlane;fontStyle=0;childLayout=stackLayout;horizontal=1;startSize=26;fillColor=none;horizontalStack=0;resizeParent=1;resizeParentMax=0;resizeLast=0;collapsible=1;marginBottom=0;" vertex="1" parent="WIyWlLk6GJQsqaUBKTNV-1">
            <mxGeometry x="250" y="-640" width="140" height="338" as="geometry" />
          </mxCell>
        </object>
        <mxCell id="_pvv8HfVqvw_CFyZ3jRB-11" value="int rno" style="text;strokeColor=none;fillColor=none;align=left;verticalAlign=top;spacingLeft=4;spacingRight=4;overflow=hidden;rotatable=0;points=[[0,0.5],[1,0.5]];portConstraint=eastwest;" vertex="1" parent="_pvv8HfVqvw_CFyZ3jRB-10">
          <mxGeometry y="26" width="140" height="26" as="geometry" />
        </mxCell>
        <mxCell id="_pvv8HfVqvw_CFyZ3jRB-12" value="String rname" style="text;strokeColor=none;fillColor=none;align=left;verticalAlign=top;spacingLeft=4;spacingRight=4;overflow=hidden;rotatable=0;points=[[0,0.5],[1,0.5]];portConstraint=eastwest;" vertex="1" parent="_pvv8HfVqvw_CFyZ3jRB-10">
          <mxGeometry y="52" width="140" height="26" as="geometry" />
        </mxCell>
        <mxCell id="_pvv8HfVqvw_CFyZ3jRB-13" value="String rcontent" style="text;strokeColor=none;fillColor=none;align=left;verticalAlign=top;spacingLeft=4;spacingRight=4;overflow=hidden;rotatable=0;points=[[0,0.5],[1,0.5]];portConstraint=eastwest;" vertex="1" parent="_pvv8HfVqvw_CFyZ3jRB-10">
          <mxGeometry y="78" width="140" height="26" as="geometry" />
        </mxCell>
        <mxCell id="_pvv8HfVqvw_CFyZ3jRB-27" value="String category" style="text;strokeColor=none;fillColor=none;align=left;verticalAlign=top;spacingLeft=4;spacingRight=4;overflow=hidden;rotatable=0;points=[[0,0.5],[1,0.5]];portConstraint=eastwest;" vertex="1" parent="_pvv8HfVqvw_CFyZ3jRB-10">
          <mxGeometry y="104" width="140" height="26" as="geometry" />
        </mxCell>
        <mxCell id="_pvv8HfVqvw_CFyZ3jRB-28" value="int price" style="text;strokeColor=none;fillColor=none;align=left;verticalAlign=top;spacingLeft=4;spacingRight=4;overflow=hidden;rotatable=0;points=[[0,0.5],[1,0.5]];portConstraint=eastwest;" vertex="1" parent="_pvv8HfVqvw_CFyZ3jRB-10">
          <mxGeometry y="130" width="140" height="26" as="geometry" />
        </mxCell>
        <mxCell id="_pvv8HfVqvw_CFyZ3jRB-29" value="String time" style="text;strokeColor=none;fillColor=none;align=left;verticalAlign=top;spacingLeft=4;spacingRight=4;overflow=hidden;rotatable=0;points=[[0,0.5],[1,0.5]];portConstraint=eastwest;" vertex="1" parent="_pvv8HfVqvw_CFyZ3jRB-10">
          <mxGeometry y="156" width="140" height="26" as="geometry" />
        </mxCell>
        <mxCell id="_pvv8HfVqvw_CFyZ3jRB-30" value="String tel" style="text;strokeColor=none;fillColor=none;align=left;verticalAlign=top;spacingLeft=4;spacingRight=4;overflow=hidden;rotatable=0;points=[[0,0.5],[1,0.5]];portConstraint=eastwest;" vertex="1" parent="_pvv8HfVqvw_CFyZ3jRB-10">
          <mxGeometry y="182" width="140" height="26" as="geometry" />
        </mxCell>
        <mxCell id="_pvv8HfVqvw_CFyZ3jRB-31" value="String address" style="text;strokeColor=none;fillColor=none;align=left;verticalAlign=top;spacingLeft=4;spacingRight=4;overflow=hidden;rotatable=0;points=[[0,0.5],[1,0.5]];portConstraint=eastwest;" vertex="1" parent="_pvv8HfVqvw_CFyZ3jRB-10">
          <mxGeometry y="208" width="140" height="26" as="geometry" />
        </mxCell>
        <mxCell id="_pvv8HfVqvw_CFyZ3jRB-32" value="String paking" style="text;strokeColor=none;fillColor=none;align=left;verticalAlign=top;spacingLeft=4;spacingRight=4;overflow=hidden;rotatable=0;points=[[0,0.5],[1,0.5]];portConstraint=eastwest;" vertex="1" parent="_pvv8HfVqvw_CFyZ3jRB-10">
          <mxGeometry y="234" width="140" height="26" as="geometry" />
        </mxCell>
        <mxCell id="_pvv8HfVqvw_CFyZ3jRB-33" value="Date updatedate" style="text;strokeColor=none;fillColor=none;align=left;verticalAlign=top;spacingLeft=4;spacingRight=4;overflow=hidden;rotatable=0;points=[[0,0.5],[1,0.5]];portConstraint=eastwest;" vertex="1" parent="_pvv8HfVqvw_CFyZ3jRB-10">
          <mxGeometry y="260" width="140" height="26" as="geometry" />
        </mxCell>
        <mxCell id="_pvv8HfVqvw_CFyZ3jRB-34" value="String rstatus" style="text;strokeColor=none;fillColor=none;align=left;verticalAlign=top;spacingLeft=4;spacingRight=4;overflow=hidden;rotatable=0;points=[[0,0.5],[1,0.5]];portConstraint=eastwest;" vertex="1" parent="_pvv8HfVqvw_CFyZ3jRB-10">
          <mxGeometry y="286" width="140" height="26" as="geometry" />
        </mxCell>
        <mxCell id="_pvv8HfVqvw_CFyZ3jRB-35" value="String adminStatus" style="text;strokeColor=none;fillColor=none;align=left;verticalAlign=top;spacingLeft=4;spacingRight=4;overflow=hidden;rotatable=0;points=[[0,0.5],[1,0.5]];portConstraint=eastwest;" vertex="1" parent="_pvv8HfVqvw_CFyZ3jRB-10">
          <mxGeometry y="312" width="140" height="26" as="geometry" />
        </mxCell>
        <object label="Comment" mstatus="" id="_pvv8HfVqvw_CFyZ3jRB-85">
          <mxCell style="swimlane;fontStyle=0;childLayout=stackLayout;horizontal=1;startSize=26;fillColor=none;horizontalStack=0;resizeParent=1;resizeParentMax=0;resizeLast=0;collapsible=1;marginBottom=0;" vertex="1" parent="WIyWlLk6GJQsqaUBKTNV-1">
            <mxGeometry x="250" y="-1070" width="140" height="208" as="geometry" />
          </mxCell>
        </object>
        <mxCell id="_pvv8HfVqvw_CFyZ3jRB-86" value="int cno" style="text;strokeColor=none;fillColor=none;align=left;verticalAlign=top;spacingLeft=4;spacingRight=4;overflow=hidden;rotatable=0;points=[[0,0.5],[1,0.5]];portConstraint=eastwest;" vertex="1" parent="_pvv8HfVqvw_CFyZ3jRB-85">
          <mxGeometry y="26" width="140" height="26" as="geometry" />
        </mxCell>
        <mxCell id="_pvv8HfVqvw_CFyZ3jRB-88" value="int pno" style="text;strokeColor=none;fillColor=none;align=left;verticalAlign=top;spacingLeft=4;spacingRight=4;overflow=hidden;rotatable=0;points=[[0,0.5],[1,0.5]];portConstraint=eastwest;" vertex="1" parent="_pvv8HfVqvw_CFyZ3jRB-85">
          <mxGeometry y="52" width="140" height="26" as="geometry" />
        </mxCell>
        <mxCell id="_pvv8HfVqvw_CFyZ3jRB-89" value="String ccontent" style="text;strokeColor=none;fillColor=none;align=left;verticalAlign=top;spacingLeft=4;spacingRight=4;overflow=hidden;rotatable=0;points=[[0,0.5],[1,0.5]];portConstraint=eastwest;" vertex="1" parent="_pvv8HfVqvw_CFyZ3jRB-85">
          <mxGeometry y="78" width="140" height="26" as="geometry" />
        </mxCell>
        <mxCell id="_pvv8HfVqvw_CFyZ3jRB-90" value="Date cdate" style="text;strokeColor=none;fillColor=none;align=left;verticalAlign=top;spacingLeft=4;spacingRight=4;overflow=hidden;rotatable=0;points=[[0,0.5],[1,0.5]];portConstraint=eastwest;" vertex="1" parent="_pvv8HfVqvw_CFyZ3jRB-85">
          <mxGeometry y="104" width="140" height="26" as="geometry" />
        </mxCell>
        <mxCell id="_pvv8HfVqvw_CFyZ3jRB-91" value="String cwriter" style="text;strokeColor=none;fillColor=none;align=left;verticalAlign=top;spacingLeft=4;spacingRight=4;overflow=hidden;rotatable=0;points=[[0,0.5],[1,0.5]];portConstraint=eastwest;" vertex="1" parent="_pvv8HfVqvw_CFyZ3jRB-85">
          <mxGeometry y="130" width="140" height="26" as="geometry" />
        </mxCell>
        <mxCell id="_pvv8HfVqvw_CFyZ3jRB-92" value="String cstatus" style="text;strokeColor=none;fillColor=none;align=left;verticalAlign=top;spacingLeft=4;spacingRight=4;overflow=hidden;rotatable=0;points=[[0,0.5],[1,0.5]];portConstraint=eastwest;" vertex="1" parent="_pvv8HfVqvw_CFyZ3jRB-85">
          <mxGeometry y="156" width="140" height="26" as="geometry" />
        </mxCell>
        <mxCell id="_pvv8HfVqvw_CFyZ3jRB-93" value="int parentkey" style="text;strokeColor=none;fillColor=none;align=left;verticalAlign=top;spacingLeft=4;spacingRight=4;overflow=hidden;rotatable=0;points=[[0,0.5],[1,0.5]];portConstraint=eastwest;" vertex="1" parent="_pvv8HfVqvw_CFyZ3jRB-85">
          <mxGeometry y="182" width="140" height="26" as="geometry" />
        </mxCell>
        <object label="Picture" mstatus="" id="_pvv8HfVqvw_CFyZ3jRB-95">
          <mxCell style="swimlane;fontStyle=0;childLayout=stackLayout;horizontal=1;startSize=26;fillColor=none;horizontalStack=0;resizeParent=1;resizeParentMax=0;resizeLast=0;collapsible=1;marginBottom=0;" vertex="1" parent="WIyWlLk6GJQsqaUBKTNV-1">
            <mxGeometry x="410" y="-862" width="140" height="208" as="geometry" />
          </mxCell>
        </object>
        <mxCell id="_pvv8HfVqvw_CFyZ3jRB-96" value="int picture_No" style="text;strokeColor=none;fillColor=none;align=left;verticalAlign=top;spacingLeft=4;spacingRight=4;overflow=hidden;rotatable=0;points=[[0,0.5],[1,0.5]];portConstraint=eastwest;" vertex="1" parent="_pvv8HfVqvw_CFyZ3jRB-95">
          <mxGeometry y="26" width="140" height="26" as="geometry" />
        </mxCell>
        <mxCell id="_pvv8HfVqvw_CFyZ3jRB-97" value="int pNo" style="text;strokeColor=none;fillColor=none;align=left;verticalAlign=top;spacingLeft=4;spacingRight=4;overflow=hidden;rotatable=0;points=[[0,0.5],[1,0.5]];portConstraint=eastwest;" vertex="1" parent="_pvv8HfVqvw_CFyZ3jRB-95">
          <mxGeometry y="52" width="140" height="26" as="geometry" />
        </mxCell>
        <mxCell id="_pvv8HfVqvw_CFyZ3jRB-98" value="String pOriginName" style="text;strokeColor=none;fillColor=none;align=left;verticalAlign=top;spacingLeft=4;spacingRight=4;overflow=hidden;rotatable=0;points=[[0,0.5],[1,0.5]];portConstraint=eastwest;" vertex="1" parent="_pvv8HfVqvw_CFyZ3jRB-95">
          <mxGeometry y="78" width="140" height="26" as="geometry" />
        </mxCell>
        <mxCell id="_pvv8HfVqvw_CFyZ3jRB-99" value="String pRenamedName" style="text;strokeColor=none;fillColor=none;align=left;verticalAlign=top;spacingLeft=4;spacingRight=4;overflow=hidden;rotatable=0;points=[[0,0.5],[1,0.5]];portConstraint=eastwest;" vertex="1" parent="_pvv8HfVqvw_CFyZ3jRB-95">
          <mxGeometry y="104" width="140" height="26" as="geometry" />
        </mxCell>
        <mxCell id="_pvv8HfVqvw_CFyZ3jRB-100" value="int pLevel" style="text;strokeColor=none;fillColor=none;align=left;verticalAlign=top;spacingLeft=4;spacingRight=4;overflow=hidden;rotatable=0;points=[[0,0.5],[1,0.5]];portConstraint=eastwest;" vertex="1" parent="_pvv8HfVqvw_CFyZ3jRB-95">
          <mxGeometry y="130" width="140" height="26" as="geometry" />
        </mxCell>
        <mxCell id="_pvv8HfVqvw_CFyZ3jRB-101" value="Date uploadDate" style="text;strokeColor=none;fillColor=none;align=left;verticalAlign=top;spacingLeft=4;spacingRight=4;overflow=hidden;rotatable=0;points=[[0,0.5],[1,0.5]];portConstraint=eastwest;" vertex="1" parent="_pvv8HfVqvw_CFyZ3jRB-95">
          <mxGeometry y="156" width="140" height="26" as="geometry" />
        </mxCell>
        <mxCell id="_pvv8HfVqvw_CFyZ3jRB-102" value="String pStatus" style="text;strokeColor=none;fillColor=none;align=left;verticalAlign=top;spacingLeft=4;spacingRight=4;overflow=hidden;rotatable=0;points=[[0,0.5],[1,0.5]];portConstraint=eastwest;" vertex="1" parent="_pvv8HfVqvw_CFyZ3jRB-95">
          <mxGeometry y="182" width="140" height="26" as="geometry" />
        </mxCell>
        <object label="Notice" mstatus="" id="_pvv8HfVqvw_CFyZ3jRB-104">
          <mxCell style="swimlane;fontStyle=0;childLayout=stackLayout;horizontal=1;startSize=26;fillColor=none;horizontalStack=0;resizeParent=1;resizeParentMax=0;resizeLast=0;collapsible=1;marginBottom=0;" vertex="1" parent="WIyWlLk6GJQsqaUBKTNV-1">
            <mxGeometry x="50" y="-390" width="140" height="208" as="geometry" />
          </mxCell>
        </object>
        <mxCell id="_pvv8HfVqvw_CFyZ3jRB-111" value="String nStatus" style="text;strokeColor=none;fillColor=none;align=left;verticalAlign=top;spacingLeft=4;spacingRight=4;overflow=hidden;rotatable=0;points=[[0,0.5],[1,0.5]];portConstraint=eastwest;" vertex="1" parent="_pvv8HfVqvw_CFyZ3jRB-104">
          <mxGeometry y="26" width="140" height="26" as="geometry" />
        </mxCell>
        <mxCell id="_pvv8HfVqvw_CFyZ3jRB-105" value="int nNo" style="text;strokeColor=none;fillColor=none;align=left;verticalAlign=top;spacingLeft=4;spacingRight=4;overflow=hidden;rotatable=0;points=[[0,0.5],[1,0.5]];portConstraint=eastwest;" vertex="1" parent="_pvv8HfVqvw_CFyZ3jRB-104">
          <mxGeometry y="52" width="140" height="26" as="geometry" />
        </mxCell>
        <mxCell id="_pvv8HfVqvw_CFyZ3jRB-106" value="String nTitle" style="text;strokeColor=none;fillColor=none;align=left;verticalAlign=top;spacingLeft=4;spacingRight=4;overflow=hidden;rotatable=0;points=[[0,0.5],[1,0.5]];portConstraint=eastwest;" vertex="1" parent="_pvv8HfVqvw_CFyZ3jRB-104">
          <mxGeometry y="78" width="140" height="26" as="geometry" />
        </mxCell>
        <mxCell id="_pvv8HfVqvw_CFyZ3jRB-107" value="String nWriter" style="text;strokeColor=none;fillColor=none;align=left;verticalAlign=top;spacingLeft=4;spacingRight=4;overflow=hidden;rotatable=0;points=[[0,0.5],[1,0.5]];portConstraint=eastwest;" vertex="1" parent="_pvv8HfVqvw_CFyZ3jRB-104">
          <mxGeometry y="104" width="140" height="26" as="geometry" />
        </mxCell>
        <mxCell id="_pvv8HfVqvw_CFyZ3jRB-108" value="Date nDate" style="text;strokeColor=none;fillColor=none;align=left;verticalAlign=top;spacingLeft=4;spacingRight=4;overflow=hidden;rotatable=0;points=[[0,0.5],[1,0.5]];portConstraint=eastwest;" vertex="1" parent="_pvv8HfVqvw_CFyZ3jRB-104">
          <mxGeometry y="130" width="140" height="26" as="geometry" />
        </mxCell>
        <mxCell id="_pvv8HfVqvw_CFyZ3jRB-109" value="String nContent" style="text;strokeColor=none;fillColor=none;align=left;verticalAlign=top;spacingLeft=4;spacingRight=4;overflow=hidden;rotatable=0;points=[[0,0.5],[1,0.5]];portConstraint=eastwest;" vertex="1" parent="_pvv8HfVqvw_CFyZ3jRB-104">
          <mxGeometry y="156" width="140" height="26" as="geometry" />
        </mxCell>
        <mxCell id="_pvv8HfVqvw_CFyZ3jRB-110" value="int nCnt" style="text;strokeColor=none;fillColor=none;align=left;verticalAlign=top;spacingLeft=4;spacingRight=4;overflow=hidden;rotatable=0;points=[[0,0.5],[1,0.5]];portConstraint=eastwest;" vertex="1" parent="_pvv8HfVqvw_CFyZ3jRB-104">
          <mxGeometry y="182" width="140" height="26" as="geometry" />
        </mxCell>
        <object label="Follower" mstatus="" id="_pvv8HfVqvw_CFyZ3jRB-52">
          <mxCell style="swimlane;fontStyle=0;childLayout=stackLayout;horizontal=1;startSize=26;fillColor=none;horizontalStack=0;resizeParent=1;resizeParentMax=0;resizeLast=0;collapsible=1;marginBottom=0;" vertex="1" parent="WIyWlLk6GJQsqaUBKTNV-1">
            <mxGeometry x="-140" y="-390" width="140" height="78" as="geometry" />
          </mxCell>
        </object>
        <mxCell id="_pvv8HfVqvw_CFyZ3jRB-53" value="String memberid" style="text;strokeColor=none;fillColor=none;align=left;verticalAlign=top;spacingLeft=4;spacingRight=4;overflow=hidden;rotatable=0;points=[[0,0.5],[1,0.5]];portConstraint=eastwest;" vertex="1" parent="_pvv8HfVqvw_CFyZ3jRB-52">
          <mxGeometry y="26" width="140" height="26" as="geometry" />
        </mxCell>
        <mxCell id="_pvv8HfVqvw_CFyZ3jRB-54" value="String followerid" style="text;strokeColor=none;fillColor=none;align=left;verticalAlign=top;spacingLeft=4;spacingRight=4;overflow=hidden;rotatable=0;points=[[0,0.5],[1,0.5]];portConstraint=eastwest;" vertex="1" parent="_pvv8HfVqvw_CFyZ3jRB-52">
          <mxGeometry y="52" width="140" height="26" as="geometry" />
        </mxCell>
      </root>
    </mxGraphModel>
  </diagram>
</mxfile>
